<svg width="16" height="16" viewBox="0 0 16 16" fill="none" xmlns="http://www.w3.org/2000/svg">
<path d="M2 2L14 14" stroke="white" stroke-width="1.5" stroke-linecap="round" stroke-linejoin="round"/>
<path fill-rule="evenodd" clip-rule="evenodd" d="M8.86463 9.80396C9.53629 9.48145 10 8.79488 10 8C10 6.89543 9.10458 6 8.00001 6C7.20513 6 6.51855 6.46371 6.19604 7.13538L8.86463 9.80396Z" fill="white"/>
<path fill-rule="evenodd" clip-rule="evenodd" d="M2.01811 5.1984C1.3123 5.92271 0.794602 6.65179 0.460351 7.18457C0.14428 7.68837 0.144279 8.31163 0.46035 8.81543C1.42109 10.3468 3.89744 13.5 8 13.5C8.73333 13.5 9.4147 13.3993 10.0447 13.225L8.77183 11.9521C8.52234 11.9834 8.26507 12 8 12C4.72306 12 2.63699 9.46238 1.73099 8.01826C1.72619 8.01062 1.72453 8.00571 1.72395 8.00369C1.72333 8.00154 1.7233 8.00044 1.7233 8C1.7233 7.99957 1.72333 7.99846 1.72395 7.99631C1.72453 7.99429 1.72619 7.98938 1.73099 7.98174C2.04139 7.48698 2.4903 6.86388 3.07815 6.25844L2.01811 5.1984ZM10.4386 11.4976C12.3373 10.6841 13.6128 9.06431 14.269 8.01826C14.2738 8.01062 14.2755 8.00571 14.2761 8.00369C14.2767 8.00154 14.2767 8.00043 14.2767 8C14.2767 7.99956 14.2767 7.99846 14.2761 7.99631C14.2755 7.99429 14.2738 7.98938 14.269 7.98174C13.363 6.53762 11.2769 4 8 4C6.48263 4 5.22059 4.5441 4.21282 5.27178L3.14057 4.19954C4.38122 3.25182 5.99674 2.5 8 2.5C12.1026 2.5 14.5789 5.6532 15.5397 7.18457C15.8557 7.68837 15.8557 8.31163 15.5397 8.81543C14.8993 9.8361 13.5857 11.5772 11.5661 12.625L10.4386 11.4976Z" fill="white"/>
</svg>
